<mxfile host="app.diagrams.net" agent="Mozilla/5.0 (Windows NT 10.0; Win64; x64) AppleWebKit/537.36 (KHTML, like Gecko) Chrome/128.0.0.0 Safari/537.36 OPR/114.0.0.0" version="24.9.2">
  <diagram name="Page-1" id="a6hHKFdJa1cV0RPYjFP0">
    <mxGraphModel grid="1" page="1" gridSize="10" guides="1" tooltips="1" connect="1" arrows="1" fold="1" pageScale="1" pageWidth="827" pageHeight="1169" math="0" shadow="0">
      <root>
        <mxCell id="0" />
        <mxCell id="1" parent="0" />
        <mxCell id="5PIJYf61gN6uRjG4J6mK-178" value="" style="endArrow=none;html=1;rounded=0;" edge="1" parent="1" source="5PIJYf61gN6uRjG4J6mK-180" target="5PIJYf61gN6uRjG4J6mK-171">
          <mxGeometry width="50" height="50" relative="1" as="geometry">
            <mxPoint x="-447" y="698.5" as="sourcePoint" />
            <mxPoint x="-397" y="648.5" as="targetPoint" />
          </mxGeometry>
        </mxCell>
        <mxCell id="5PIJYf61gN6uRjG4J6mK-179" value="" style="endArrow=none;html=1;rounded=0;" edge="1" parent="1" source="5PIJYf61gN6uRjG4J6mK-139" target="5PIJYf61gN6uRjG4J6mK-180">
          <mxGeometry width="50" height="50" relative="1" as="geometry">
            <mxPoint x="-436" y="689.5" as="sourcePoint" />
            <mxPoint x="-433" y="779.5" as="targetPoint" />
          </mxGeometry>
        </mxCell>
        <mxCell id="5PIJYf61gN6uRjG4J6mK-270" value="" style="rounded=0;whiteSpace=wrap;html=1;" vertex="1" parent="1">
          <mxGeometry x="-387" y="714.5" width="56" height="46" as="geometry" />
        </mxCell>
        <mxCell id="5PIJYf61gN6uRjG4J6mK-234" value="" style="rounded=0;whiteSpace=wrap;html=1;" vertex="1" parent="1">
          <mxGeometry x="-507" y="323.5" width="90" height="57" as="geometry" />
        </mxCell>
        <mxCell id="nVCY8v1cohrTL9bKAxeN-14" value="Brand" style="rounded=0;whiteSpace=wrap;html=1;" vertex="1" parent="1">
          <mxGeometry x="-501" y="330.12" width="78" height="45.13" as="geometry" />
        </mxCell>
        <mxCell id="5PIJYf61gN6uRjG4J6mK-199" value="" style="rounded=0;whiteSpace=wrap;html=1;" vertex="1" parent="1">
          <mxGeometry x="-496" y="478.75" width="120" height="63.5" as="geometry" />
        </mxCell>
        <mxCell id="nVCY8v1cohrTL9bKAxeN-13" value="Category" style="rounded=0;whiteSpace=wrap;html=1;" vertex="1" parent="1">
          <mxGeometry x="-492.5" y="485.87" width="113" height="49.25" as="geometry" />
        </mxCell>
        <mxCell id="5PIJYf61gN6uRjG4J6mK-137" value="&lt;div&gt;User&lt;/div&gt;" style="rounded=0;whiteSpace=wrap;html=1;" vertex="1" parent="1">
          <mxGeometry x="-697" y="759" width="120" height="60" as="geometry" />
        </mxCell>
        <mxCell id="5PIJYf61gN6uRjG4J6mK-138" value="" style="rounded=0;whiteSpace=wrap;html=1;" vertex="1" parent="1">
          <mxGeometry x="-502" y="627" width="130" height="65" as="geometry" />
        </mxCell>
        <mxCell id="5PIJYf61gN6uRjG4J6mK-139" value="Listing" style="rounded=0;whiteSpace=wrap;html=1;" vertex="1" parent="1">
          <mxGeometry x="-497" y="629.5" width="120" height="60" as="geometry" />
        </mxCell>
        <mxCell id="5PIJYf61gN6uRjG4J6mK-140" value="" style="endArrow=none;html=1;rounded=0;exitX=1;exitY=0.5;exitDx=0;exitDy=0;" edge="1" parent="1" source="5PIJYf61gN6uRjG4J6mK-137" target="5PIJYf61gN6uRjG4J6mK-141">
          <mxGeometry width="50" height="50" relative="1" as="geometry">
            <mxPoint x="-337" y="858" as="sourcePoint" />
            <mxPoint x="-557" y="868" as="targetPoint" />
          </mxGeometry>
        </mxCell>
        <mxCell id="5PIJYf61gN6uRjG4J6mK-141" value="has" style="rhombus;whiteSpace=wrap;html=1;" vertex="1" parent="1">
          <mxGeometry x="-557" y="721.62" width="40" height="30" as="geometry" />
        </mxCell>
        <mxCell id="5PIJYf61gN6uRjG4J6mK-142" value="" style="endArrow=none;html=1;rounded=0;entryX=0;entryY=0.5;entryDx=0;entryDy=0;" edge="1" parent="1" source="5PIJYf61gN6uRjG4J6mK-141" target="5PIJYf61gN6uRjG4J6mK-139">
          <mxGeometry width="50" height="50" relative="1" as="geometry">
            <mxPoint x="-337" y="728.5" as="sourcePoint" />
            <mxPoint x="-287" y="678.5" as="targetPoint" />
          </mxGeometry>
        </mxCell>
        <mxCell id="5PIJYf61gN6uRjG4J6mK-143" value="1" style="text;html=1;align=center;verticalAlign=middle;resizable=0;points=[];autosize=1;strokeColor=none;fillColor=none;" vertex="1" parent="1">
          <mxGeometry x="-584" y="746.5" width="30" height="30" as="geometry" />
        </mxCell>
        <mxCell id="5PIJYf61gN6uRjG4J6mK-144" value="m" style="text;html=1;align=center;verticalAlign=middle;resizable=0;points=[];autosize=1;strokeColor=none;fillColor=none;" vertex="1" parent="1">
          <mxGeometry x="-517" y="688" width="30" height="30" as="geometry" />
        </mxCell>
        <mxCell id="5PIJYf61gN6uRjG4J6mK-145" value="Power" style="ellipse;whiteSpace=wrap;html=1;" vertex="1" parent="1">
          <mxGeometry x="-118.25" y="336.75" width="72.5" height="38.5" as="geometry" />
        </mxCell>
        <mxCell id="5PIJYf61gN6uRjG4J6mK-148" value="Mileage" style="ellipse;whiteSpace=wrap;html=1;" vertex="1" parent="1">
          <mxGeometry x="-112" y="435" width="60" height="45" as="geometry" />
        </mxCell>
        <mxCell id="5PIJYf61gN6uRjG4J6mK-149" value="Color" style="ellipse;whiteSpace=wrap;html=1;" vertex="1" parent="1">
          <mxGeometry x="-80" y="384.38" width="60" height="41.75" as="geometry" />
        </mxCell>
        <mxCell id="5PIJYf61gN6uRjG4J6mK-150" value="" style="endArrow=none;html=1;rounded=0;" edge="1" parent="1" source="5PIJYf61gN6uRjG4J6mK-203" target="5PIJYf61gN6uRjG4J6mK-149">
          <mxGeometry width="50" height="50" relative="1" as="geometry">
            <mxPoint x="-117" y="626.5" as="sourcePoint" />
            <mxPoint x="-67" y="576.5" as="targetPoint" />
          </mxGeometry>
        </mxCell>
        <mxCell id="5PIJYf61gN6uRjG4J6mK-151" value="" style="endArrow=none;html=1;rounded=0;" edge="1" parent="1" source="5PIJYf61gN6uRjG4J6mK-203" target="5PIJYf61gN6uRjG4J6mK-148">
          <mxGeometry width="50" height="50" relative="1" as="geometry">
            <mxPoint x="-227" y="648.5" as="sourcePoint" />
            <mxPoint x="-134" y="619.5" as="targetPoint" />
          </mxGeometry>
        </mxCell>
        <mxCell id="5PIJYf61gN6uRjG4J6mK-152" value="" style="endArrow=none;html=1;rounded=0;" edge="1" parent="1" source="nVCY8v1cohrTL9bKAxeN-7" target="5PIJYf61gN6uRjG4J6mK-199">
          <mxGeometry width="50" height="50" relative="1" as="geometry">
            <mxPoint x="-357" y="660.5" as="sourcePoint" />
            <mxPoint x="-417" y="537.25" as="targetPoint" />
          </mxGeometry>
        </mxCell>
        <mxCell id="5PIJYf61gN6uRjG4J6mK-153" value="" style="endArrow=none;html=1;rounded=0;" edge="1" parent="1" source="5PIJYf61gN6uRjG4J6mK-203" target="5PIJYf61gN6uRjG4J6mK-145">
          <mxGeometry width="50" height="50" relative="1" as="geometry">
            <mxPoint x="-207" y="668.5" as="sourcePoint" />
            <mxPoint x="-114" y="639.5" as="targetPoint" />
          </mxGeometry>
        </mxCell>
        <mxCell id="5PIJYf61gN6uRjG4J6mK-160" value="VIN" style="ellipse;whiteSpace=wrap;html=1;fontStyle=4" vertex="1" parent="1">
          <mxGeometry x="-101" y="489" width="60" height="40.5" as="geometry" />
        </mxCell>
        <mxCell id="5PIJYf61gN6uRjG4J6mK-161" value="" style="endArrow=none;html=1;rounded=0;" edge="1" parent="1" source="5PIJYf61gN6uRjG4J6mK-203" target="5PIJYf61gN6uRjG4J6mK-160">
          <mxGeometry width="50" height="50" relative="1" as="geometry">
            <mxPoint x="-247" y="626.5" as="sourcePoint" />
            <mxPoint x="-197" y="576.5" as="targetPoint" />
          </mxGeometry>
        </mxCell>
        <mxCell id="5PIJYf61gN6uRjG4J6mK-164" value="Phone number" style="ellipse;whiteSpace=wrap;html=1;" vertex="1" parent="1">
          <mxGeometry x="-722" y="875.5" width="70" height="50" as="geometry" />
        </mxCell>
        <mxCell id="5PIJYf61gN6uRjG4J6mK-165" value="Email" style="ellipse;whiteSpace=wrap;html=1;" vertex="1" parent="1">
          <mxGeometry x="-632" y="875.5" width="70" height="50" as="geometry" />
        </mxCell>
        <mxCell id="5PIJYf61gN6uRjG4J6mK-166" value="" style="endArrow=none;html=1;rounded=0;" edge="1" parent="1" source="5PIJYf61gN6uRjG4J6mK-137" target="5PIJYf61gN6uRjG4J6mK-165">
          <mxGeometry width="50" height="50" relative="1" as="geometry">
            <mxPoint x="-387" y="758" as="sourcePoint" />
            <mxPoint x="-337" y="708" as="targetPoint" />
          </mxGeometry>
        </mxCell>
        <mxCell id="5PIJYf61gN6uRjG4J6mK-167" value="" style="endArrow=none;html=1;rounded=0;" edge="1" parent="1" source="5PIJYf61gN6uRjG4J6mK-137" target="5PIJYf61gN6uRjG4J6mK-164">
          <mxGeometry width="50" height="50" relative="1" as="geometry">
            <mxPoint x="-387" y="758" as="sourcePoint" />
            <mxPoint x="-337" y="708" as="targetPoint" />
          </mxGeometry>
        </mxCell>
        <mxCell id="5PIJYf61gN6uRjG4J6mK-170" value="" style="rounded=0;whiteSpace=wrap;html=1;" vertex="1" parent="1">
          <mxGeometry x="-377" y="778" width="162" height="81" as="geometry" />
        </mxCell>
        <mxCell id="5PIJYf61gN6uRjG4J6mK-171" value="Favorite Listing" style="rounded=0;whiteSpace=wrap;html=1;" vertex="1" parent="1">
          <mxGeometry x="-356" y="788.5" width="120" height="60" as="geometry" />
        </mxCell>
        <mxCell id="5PIJYf61gN6uRjG4J6mK-172" value="" style="endArrow=none;html=1;rounded=0;" edge="1" parent="1" source="5PIJYf61gN6uRjG4J6mK-175" target="5PIJYf61gN6uRjG4J6mK-170">
          <mxGeometry width="50" height="50" relative="1" as="geometry">
            <mxPoint x="-447" y="698.5" as="sourcePoint" />
            <mxPoint x="-397" y="648.5" as="targetPoint" />
          </mxGeometry>
        </mxCell>
        <mxCell id="5PIJYf61gN6uRjG4J6mK-173" value="" style="endArrow=none;html=1;rounded=0;" edge="1" parent="1" source="5PIJYf61gN6uRjG4J6mK-137" target="5PIJYf61gN6uRjG4J6mK-175">
          <mxGeometry width="50" height="50" relative="1" as="geometry">
            <mxPoint x="-596" y="819" as="sourcePoint" />
            <mxPoint x="-488" y="898" as="targetPoint" />
          </mxGeometry>
        </mxCell>
        <mxCell id="5PIJYf61gN6uRjG4J6mK-175" value="has" style="rhombus;whiteSpace=wrap;html=1;" vertex="1" parent="1">
          <mxGeometry x="-482" y="797.5" width="40" height="33" as="geometry" />
        </mxCell>
        <mxCell id="5PIJYf61gN6uRjG4J6mK-176" value="m" style="text;html=1;align=center;verticalAlign=middle;resizable=0;points=[];autosize=1;strokeColor=none;fillColor=none;" vertex="1" parent="1">
          <mxGeometry x="-407" y="830.5" width="30" height="30" as="geometry" />
        </mxCell>
        <mxCell id="5PIJYf61gN6uRjG4J6mK-177" value="1" style="text;html=1;align=center;verticalAlign=middle;resizable=0;points=[];autosize=1;strokeColor=none;fillColor=none;" vertex="1" parent="1">
          <mxGeometry x="-577" y="797.5" width="30" height="30" as="geometry" />
        </mxCell>
        <mxCell id="5PIJYf61gN6uRjG4J6mK-180" value="can be" style="rhombus;whiteSpace=wrap;html=1;" vertex="1" parent="1">
          <mxGeometry x="-383" y="714.49" width="48" height="44.25" as="geometry" />
        </mxCell>
        <mxCell id="5PIJYf61gN6uRjG4J6mK-181" value="m" style="text;html=1;align=center;verticalAlign=middle;resizable=0;points=[];autosize=1;strokeColor=none;fillColor=none;" vertex="1" parent="1">
          <mxGeometry x="-417" y="692" width="30" height="30" as="geometry" />
        </mxCell>
        <mxCell id="5PIJYf61gN6uRjG4J6mK-183" value="" style="rounded=0;whiteSpace=wrap;html=1;" vertex="1" parent="1">
          <mxGeometry x="-716" y="614.5" width="128" height="64" as="geometry" />
        </mxCell>
        <mxCell id="5PIJYf61gN6uRjG4J6mK-184" value="Ask" style="rounded=0;whiteSpace=wrap;html=1;" vertex="1" parent="1">
          <mxGeometry x="-712" y="616.5" width="120" height="60" as="geometry" />
        </mxCell>
        <mxCell id="5PIJYf61gN6uRjG4J6mK-185" value="has" style="rhombus;whiteSpace=wrap;html=1;" vertex="1" parent="1">
          <mxGeometry x="-557" y="629.5" width="30" height="30" as="geometry" />
        </mxCell>
        <mxCell id="5PIJYf61gN6uRjG4J6mK-186" value="" style="endArrow=none;html=1;rounded=0;exitX=1;exitY=1;exitDx=0;exitDy=0;" edge="1" parent="1" source="5PIJYf61gN6uRjG4J6mK-185" target="5PIJYf61gN6uRjG4J6mK-139">
          <mxGeometry width="50" height="50" relative="1" as="geometry">
            <mxPoint x="-457" y="718.5" as="sourcePoint" />
            <mxPoint x="-407" y="668.5" as="targetPoint" />
          </mxGeometry>
        </mxCell>
        <mxCell id="5PIJYf61gN6uRjG4J6mK-187" value="" style="endArrow=none;html=1;rounded=0;entryX=0;entryY=0.5;entryDx=0;entryDy=0;" edge="1" parent="1" source="5PIJYf61gN6uRjG4J6mK-184" target="5PIJYf61gN6uRjG4J6mK-185">
          <mxGeometry width="50" height="50" relative="1" as="geometry">
            <mxPoint x="-457" y="718.5" as="sourcePoint" />
            <mxPoint x="-407" y="668.5" as="targetPoint" />
          </mxGeometry>
        </mxCell>
        <mxCell id="5PIJYf61gN6uRjG4J6mK-188" value="m" style="text;html=1;align=center;verticalAlign=middle;resizable=0;points=[];autosize=1;strokeColor=none;fillColor=none;" vertex="1" parent="1">
          <mxGeometry x="-592" y="616.5" width="30" height="30" as="geometry" />
        </mxCell>
        <mxCell id="5PIJYf61gN6uRjG4J6mK-189" value="1" style="text;html=1;align=center;verticalAlign=middle;resizable=0;points=[];autosize=1;strokeColor=none;fillColor=none;" vertex="1" parent="1">
          <mxGeometry x="-532" y="627" width="30" height="30" as="geometry" />
        </mxCell>
        <mxCell id="5PIJYf61gN6uRjG4J6mK-190" value="" style="endArrow=none;html=1;rounded=0;" edge="1" parent="1" source="5PIJYf61gN6uRjG4J6mK-192" target="5PIJYf61gN6uRjG4J6mK-184">
          <mxGeometry width="50" height="50" relative="1" as="geometry">
            <mxPoint x="-647" y="758.5" as="sourcePoint" />
            <mxPoint x="-567" y="688.5" as="targetPoint" />
          </mxGeometry>
        </mxCell>
        <mxCell id="5PIJYf61gN6uRjG4J6mK-191" value="" style="endArrow=none;html=1;rounded=0;" edge="1" parent="1" target="5PIJYf61gN6uRjG4J6mK-192">
          <mxGeometry width="50" height="50" relative="1" as="geometry">
            <mxPoint x="-647" y="758.5" as="sourcePoint" />
            <mxPoint x="-651" y="676.5" as="targetPoint" />
          </mxGeometry>
        </mxCell>
        <mxCell id="5PIJYf61gN6uRjG4J6mK-192" value="has" style="rhombus;whiteSpace=wrap;html=1;" vertex="1" parent="1">
          <mxGeometry x="-667" y="705.5" width="30" height="33" as="geometry" />
        </mxCell>
        <mxCell id="5PIJYf61gN6uRjG4J6mK-193" value="m" style="text;html=1;align=center;verticalAlign=middle;resizable=0;points=[];autosize=1;strokeColor=none;fillColor=none;" vertex="1" parent="1">
          <mxGeometry x="-652" y="676.5" width="30" height="30" as="geometry" />
        </mxCell>
        <mxCell id="5PIJYf61gN6uRjG4J6mK-194" value="1" style="text;html=1;align=center;verticalAlign=middle;resizable=0;points=[];autosize=1;strokeColor=none;fillColor=none;" vertex="1" parent="1">
          <mxGeometry x="-652" y="738.5" width="30" height="30" as="geometry" />
        </mxCell>
        <mxCell id="5PIJYf61gN6uRjG4J6mK-201" value="" style="rounded=0;whiteSpace=wrap;html=1;" vertex="1" parent="1">
          <mxGeometry x="-307" y="375.25" width="130" height="60" as="geometry" />
        </mxCell>
        <mxCell id="5PIJYf61gN6uRjG4J6mK-202" value="" style="endArrow=none;html=1;rounded=0;" edge="1" parent="1" source="nVCY8v1cohrTL9bKAxeN-11" target="5PIJYf61gN6uRjG4J6mK-203">
          <mxGeometry width="50" height="50" relative="1" as="geometry">
            <mxPoint x="-387" y="477.25" as="sourcePoint" />
            <mxPoint x="-387" y="367.25" as="targetPoint" />
          </mxGeometry>
        </mxCell>
        <mxCell id="5PIJYf61gN6uRjG4J6mK-203" value="Vehicle" style="rounded=0;whiteSpace=wrap;html=1;" vertex="1" parent="1">
          <mxGeometry x="-302" y="375.25" width="120" height="60" as="geometry" />
        </mxCell>
        <mxCell id="5PIJYf61gN6uRjG4J6mK-204" value="1" style="text;html=1;align=center;verticalAlign=middle;resizable=0;points=[];autosize=1;strokeColor=none;fillColor=none;" vertex="1" parent="1">
          <mxGeometry x="-467" y="537.5" width="30" height="30" as="geometry" />
        </mxCell>
        <mxCell id="5PIJYf61gN6uRjG4J6mK-205" value="m" style="text;html=1;align=center;verticalAlign=middle;resizable=0;points=[];autosize=1;strokeColor=none;fillColor=none;" vertex="1" parent="1">
          <mxGeometry x="-467" y="599.5" width="30" height="30" as="geometry" />
        </mxCell>
        <mxCell id="5PIJYf61gN6uRjG4J6mK-206" value="1" style="text;html=1;align=center;verticalAlign=middle;resizable=0;points=[];autosize=1;strokeColor=none;fillColor=none;" vertex="1" parent="1">
          <mxGeometry x="-408" y="451" width="30" height="30" as="geometry" />
        </mxCell>
        <mxCell id="5PIJYf61gN6uRjG4J6mK-207" value="m" style="text;html=1;align=center;verticalAlign=middle;resizable=0;points=[];autosize=1;strokeColor=none;fillColor=none;" vertex="1" parent="1">
          <mxGeometry x="-338" y="421.5" width="30" height="30" as="geometry" />
        </mxCell>
        <mxCell id="5PIJYf61gN6uRjG4J6mK-208" value="" style="rounded=0;whiteSpace=wrap;html=1;" vertex="1" parent="1">
          <mxGeometry x="-717" y="421.5" width="140" height="77.5" as="geometry" />
        </mxCell>
        <mxCell id="5PIJYf61gN6uRjG4J6mK-209" value="Car part" style="rounded=0;whiteSpace=wrap;html=1;" vertex="1" parent="1">
          <mxGeometry x="-707" y="429" width="120" height="60" as="geometry" />
        </mxCell>
        <mxCell id="5PIJYf61gN6uRjG4J6mK-210" value="" style="endArrow=none;html=1;rounded=0;" edge="1" parent="1" source="nVCY8v1cohrTL9bKAxeN-9" target="5PIJYf61gN6uRjG4J6mK-199">
          <mxGeometry width="50" height="50" relative="1" as="geometry">
            <mxPoint x="-437" y="587.25" as="sourcePoint" />
            <mxPoint x="-387" y="537.25" as="targetPoint" />
          </mxGeometry>
        </mxCell>
        <mxCell id="5PIJYf61gN6uRjG4J6mK-211" value="1" style="text;html=1;align=center;verticalAlign=middle;resizable=0;points=[];autosize=1;strokeColor=none;fillColor=none;" vertex="1" parent="1">
          <mxGeometry x="-526" y="489.25" width="30" height="30" as="geometry" />
        </mxCell>
        <mxCell id="5PIJYf61gN6uRjG4J6mK-212" value="m" style="text;html=1;align=center;verticalAlign=middle;resizable=0;points=[];autosize=1;strokeColor=none;fillColor=none;" vertex="1" parent="1">
          <mxGeometry x="-584" y="451" width="30" height="30" as="geometry" />
        </mxCell>
        <mxCell id="5PIJYf61gN6uRjG4J6mK-214" value="Region" style="rounded=0;whiteSpace=wrap;html=1;" vertex="1" parent="1">
          <mxGeometry x="-172" y="731.5" width="120" height="60" as="geometry" />
        </mxCell>
        <mxCell id="5PIJYf61gN6uRjG4J6mK-215" value="" style="endArrow=none;html=1;rounded=0;" edge="1" parent="1" source="5PIJYf61gN6uRjG4J6mK-217" target="5PIJYf61gN6uRjG4J6mK-214">
          <mxGeometry width="50" height="50" relative="1" as="geometry">
            <mxPoint x="-407" y="597.25" as="sourcePoint" />
            <mxPoint x="-357" y="547.25" as="targetPoint" />
          </mxGeometry>
        </mxCell>
        <mxCell id="5PIJYf61gN6uRjG4J6mK-216" value="" style="endArrow=none;html=1;rounded=0;" edge="1" parent="1" source="5PIJYf61gN6uRjG4J6mK-139" target="5PIJYf61gN6uRjG4J6mK-217">
          <mxGeometry width="50" height="50" relative="1" as="geometry">
            <mxPoint x="-377" y="656.25" as="sourcePoint" />
            <mxPoint x="-257" y="650.25" as="targetPoint" />
          </mxGeometry>
        </mxCell>
        <mxCell id="5PIJYf61gN6uRjG4J6mK-217" value="has" style="rhombus;whiteSpace=wrap;html=1;" vertex="1" parent="1">
          <mxGeometry x="-290" y="697.5" width="39" height="34" as="geometry" />
        </mxCell>
        <mxCell id="5PIJYf61gN6uRjG4J6mK-218" value="m" style="text;html=1;align=center;verticalAlign=middle;resizable=0;points=[];autosize=1;strokeColor=none;fillColor=none;" vertex="1" parent="1">
          <mxGeometry x="-372" y="664.25" width="30" height="30" as="geometry" />
        </mxCell>
        <mxCell id="5PIJYf61gN6uRjG4J6mK-219" value="1" style="text;html=1;align=center;verticalAlign=middle;resizable=0;points=[];autosize=1;strokeColor=none;fillColor=none;" vertex="1" parent="1">
          <mxGeometry x="-202" y="714.49" width="30" height="30" as="geometry" />
        </mxCell>
        <mxCell id="5PIJYf61gN6uRjG4J6mK-220" value="Message" style="ellipse;whiteSpace=wrap;html=1;" vertex="1" parent="1">
          <mxGeometry x="-798" y="563.5" width="60" height="36" as="geometry" />
        </mxCell>
        <mxCell id="5PIJYf61gN6uRjG4J6mK-221" value="" style="endArrow=none;html=1;rounded=0;" edge="1" parent="1" source="5PIJYf61gN6uRjG4J6mK-220" target="5PIJYf61gN6uRjG4J6mK-184">
          <mxGeometry width="50" height="50" relative="1" as="geometry">
            <mxPoint x="-407" y="597.25" as="sourcePoint" />
            <mxPoint x="-357" y="547.25" as="targetPoint" />
          </mxGeometry>
        </mxCell>
        <mxCell id="5PIJYf61gN6uRjG4J6mK-222" value="Name" style="ellipse;whiteSpace=wrap;html=1;" vertex="1" parent="1">
          <mxGeometry x="-682" y="925.5" width="70" height="50" as="geometry" />
        </mxCell>
        <mxCell id="5PIJYf61gN6uRjG4J6mK-223" value="" style="endArrow=none;html=1;rounded=0;" edge="1" parent="1" source="5PIJYf61gN6uRjG4J6mK-137" target="5PIJYf61gN6uRjG4J6mK-222">
          <mxGeometry width="50" height="50" relative="1" as="geometry">
            <mxPoint x="-616" y="829.25" as="sourcePoint" />
            <mxPoint x="-596" y="886.25" as="targetPoint" />
          </mxGeometry>
        </mxCell>
        <mxCell id="5PIJYf61gN6uRjG4J6mK-224" value="Title" style="ellipse;whiteSpace=wrap;html=1;" vertex="1" parent="1">
          <mxGeometry x="-236" y="547.75" width="54" height="30" as="geometry" />
        </mxCell>
        <mxCell id="5PIJYf61gN6uRjG4J6mK-225" value="" style="endArrow=none;html=1;rounded=0;" edge="1" parent="1" source="5PIJYf61gN6uRjG4J6mK-139" target="5PIJYf61gN6uRjG4J6mK-224">
          <mxGeometry width="50" height="50" relative="1" as="geometry">
            <mxPoint x="-407" y="597.25" as="sourcePoint" />
            <mxPoint x="-357" y="547.25" as="targetPoint" />
          </mxGeometry>
        </mxCell>
        <mxCell id="5PIJYf61gN6uRjG4J6mK-226" value="Description" style="ellipse;whiteSpace=wrap;html=1;" vertex="1" parent="1">
          <mxGeometry x="-177" y="542.75" width="70" height="40" as="geometry" />
        </mxCell>
        <mxCell id="5PIJYf61gN6uRjG4J6mK-227" value="" style="endArrow=none;html=1;rounded=0;" edge="1" parent="1" source="5PIJYf61gN6uRjG4J6mK-139" target="5PIJYf61gN6uRjG4J6mK-226">
          <mxGeometry width="50" height="50" relative="1" as="geometry">
            <mxPoint x="-375" y="639.25" as="sourcePoint" />
            <mxPoint x="-299" y="596.25" as="targetPoint" />
          </mxGeometry>
        </mxCell>
        <mxCell id="5PIJYf61gN6uRjG4J6mK-228" value="Photos" style="ellipse;whiteSpace=wrap;html=1;" vertex="1" parent="1">
          <mxGeometry x="-188" y="591" width="58" height="31" as="geometry" />
        </mxCell>
        <mxCell id="5PIJYf61gN6uRjG4J6mK-229" value="" style="endArrow=none;html=1;rounded=0;" edge="1" parent="1" source="5PIJYf61gN6uRjG4J6mK-139" target="5PIJYf61gN6uRjG4J6mK-228">
          <mxGeometry width="50" height="50" relative="1" as="geometry">
            <mxPoint x="-367" y="641.25" as="sourcePoint" />
            <mxPoint x="-231" y="576.25" as="targetPoint" />
          </mxGeometry>
        </mxCell>
        <mxCell id="5PIJYf61gN6uRjG4J6mK-230" value="Usage status" style="ellipse;whiteSpace=wrap;html=1;" vertex="1" parent="1">
          <mxGeometry x="-111.5" y="591.75" width="65" height="48" as="geometry" />
        </mxCell>
        <mxCell id="5PIJYf61gN6uRjG4J6mK-231" value="" style="endArrow=none;html=1;rounded=0;" edge="1" parent="1" source="5PIJYf61gN6uRjG4J6mK-139" target="5PIJYf61gN6uRjG4J6mK-230">
          <mxGeometry width="50" height="50" relative="1" as="geometry">
            <mxPoint x="-367" y="652.25" as="sourcePoint" />
            <mxPoint x="-267" y="624.25" as="targetPoint" />
          </mxGeometry>
        </mxCell>
        <mxCell id="5PIJYf61gN6uRjG4J6mK-232" value="Price" style="ellipse;whiteSpace=wrap;html=1;" vertex="1" parent="1">
          <mxGeometry x="-154" y="635" width="55" height="34.75" as="geometry" />
        </mxCell>
        <mxCell id="5PIJYf61gN6uRjG4J6mK-233" value="" style="endArrow=none;html=1;rounded=0;" edge="1" parent="1" source="5PIJYf61gN6uRjG4J6mK-139" target="5PIJYf61gN6uRjG4J6mK-232">
          <mxGeometry width="50" height="50" relative="1" as="geometry">
            <mxPoint x="-367" y="662.25" as="sourcePoint" />
            <mxPoint x="-209" y="642.25" as="targetPoint" />
          </mxGeometry>
        </mxCell>
        <mxCell id="5PIJYf61gN6uRjG4J6mK-236" value="" style="endArrow=none;html=1;rounded=0;" edge="1" parent="1" source="nVCY8v1cohrTL9bKAxeN-5" target="5PIJYf61gN6uRjG4J6mK-234">
          <mxGeometry width="50" height="50" relative="1" as="geometry">
            <mxPoint x="-427" y="540.5" as="sourcePoint" />
            <mxPoint x="-417.4587155963304" y="299" as="targetPoint" />
          </mxGeometry>
        </mxCell>
        <mxCell id="5PIJYf61gN6uRjG4J6mK-238" value="" style="endArrow=none;html=1;rounded=0;" edge="1" parent="1" source="nVCY8v1cohrTL9bKAxeN-3" target="5PIJYf61gN6uRjG4J6mK-234">
          <mxGeometry width="50" height="50" relative="1" as="geometry">
            <mxPoint x="-281" y="385.5" as="sourcePoint" />
            <mxPoint x="-387" y="319.5" as="targetPoint" />
          </mxGeometry>
        </mxCell>
        <mxCell id="5PIJYf61gN6uRjG4J6mK-239" value="n" style="text;html=1;align=center;verticalAlign=middle;resizable=0;points=[];autosize=1;strokeColor=none;fillColor=none;" vertex="1" parent="1">
          <mxGeometry x="-584" y="410.5" width="30" height="30" as="geometry" />
        </mxCell>
        <mxCell id="5PIJYf61gN6uRjG4J6mK-240" value="m" style="text;html=1;align=center;verticalAlign=middle;resizable=0;points=[];autosize=1;strokeColor=none;fillColor=none;" vertex="1" parent="1">
          <mxGeometry x="-536" y="360.25" width="30" height="30" as="geometry" />
        </mxCell>
        <mxCell id="5PIJYf61gN6uRjG4J6mK-241" value="m" style="text;html=1;align=center;verticalAlign=middle;resizable=0;points=[];autosize=1;strokeColor=none;fillColor=none;" vertex="1" parent="1">
          <mxGeometry x="-337" y="384.5" width="30" height="30" as="geometry" />
        </mxCell>
        <mxCell id="5PIJYf61gN6uRjG4J6mK-242" value="1" style="text;html=1;align=center;verticalAlign=middle;resizable=0;points=[];autosize=1;strokeColor=none;fillColor=none;" vertex="1" parent="1">
          <mxGeometry x="-421" y="367.25" width="30" height="30" as="geometry" />
        </mxCell>
        <mxCell id="5PIJYf61gN6uRjG4J6mK-244" value="" style="rounded=0;whiteSpace=wrap;html=1;" vertex="1" parent="1">
          <mxGeometry x="-522" y="193" width="120" height="60" as="geometry" />
        </mxCell>
        <mxCell id="5PIJYf61gN6uRjG4J6mK-243" value="Model" style="rounded=0;whiteSpace=wrap;html=1;" vertex="1" parent="1">
          <mxGeometry x="-503" y="200.5" width="82" height="45" as="geometry" />
        </mxCell>
        <mxCell id="5PIJYf61gN6uRjG4J6mK-245" value="" style="endArrow=none;html=1;rounded=0;" edge="1" parent="1" target="5PIJYf61gN6uRjG4J6mK-243">
          <mxGeometry width="50" height="50" relative="1" as="geometry">
            <mxPoint x="-462" y="323.5" as="sourcePoint" />
            <mxPoint x="-301" y="330.5" as="targetPoint" />
          </mxGeometry>
        </mxCell>
        <mxCell id="5PIJYf61gN6uRjG4J6mK-246" value="1" style="text;html=1;align=center;verticalAlign=middle;resizable=0;points=[];autosize=1;strokeColor=none;fillColor=none;" vertex="1" parent="1">
          <mxGeometry x="-466" y="298.5" width="30" height="30" as="geometry" />
        </mxCell>
        <mxCell id="5PIJYf61gN6uRjG4J6mK-247" value="m" style="text;html=1;align=center;verticalAlign=middle;resizable=0;points=[];autosize=1;strokeColor=none;fillColor=none;" vertex="1" parent="1">
          <mxGeometry x="-466" y="248.5" width="30" height="30" as="geometry" />
        </mxCell>
        <mxCell id="5PIJYf61gN6uRjG4J6mK-248" value="Year of production" style="ellipse;whiteSpace=wrap;html=1;" vertex="1" parent="1">
          <mxGeometry x="-99" y="657" width="75" height="40.5" as="geometry" />
        </mxCell>
        <mxCell id="5PIJYf61gN6uRjG4J6mK-249" value="" style="endArrow=none;html=1;rounded=0;" edge="1" parent="1" source="5PIJYf61gN6uRjG4J6mK-139" target="5PIJYf61gN6uRjG4J6mK-248">
          <mxGeometry width="50" height="50" relative="1" as="geometry">
            <mxPoint x="-235" y="385.5" as="sourcePoint" />
            <mxPoint x="-248" y="268.5" as="targetPoint" />
          </mxGeometry>
        </mxCell>
        <mxCell id="5PIJYf61gN6uRjG4J6mK-252" value="partType" style="ellipse;whiteSpace=wrap;html=1;" vertex="1" parent="1">
          <mxGeometry x="-798" y="334.5" width="76" height="43" as="geometry" />
        </mxCell>
        <mxCell id="5PIJYf61gN6uRjG4J6mK-253" value="" style="endArrow=none;html=1;rounded=0;" edge="1" parent="1" source="5PIJYf61gN6uRjG4J6mK-209" target="5PIJYf61gN6uRjG4J6mK-252">
          <mxGeometry width="50" height="50" relative="1" as="geometry">
            <mxPoint x="-361" y="510.5" as="sourcePoint" />
            <mxPoint x="-311" y="460.5" as="targetPoint" />
          </mxGeometry>
        </mxCell>
        <mxCell id="5PIJYf61gN6uRjG4J6mK-254" value="Type of engine" style="rounded=0;whiteSpace=wrap;html=1;" vertex="1" parent="1">
          <mxGeometry x="-155.75" y="210" width="105.75" height="55" as="geometry" />
        </mxCell>
        <mxCell id="5PIJYf61gN6uRjG4J6mK-256" value="" style="endArrow=none;html=1;rounded=0;" edge="1" parent="1" source="5PIJYf61gN6uRjG4J6mK-258" target="5PIJYf61gN6uRjG4J6mK-254">
          <mxGeometry width="50" height="50" relative="1" as="geometry">
            <mxPoint x="-166.25" y="497" as="sourcePoint" />
            <mxPoint x="-116.25" y="447" as="targetPoint" />
          </mxGeometry>
        </mxCell>
        <mxCell id="5PIJYf61gN6uRjG4J6mK-257" value="" style="endArrow=none;html=1;rounded=0;" edge="1" parent="1" source="5PIJYf61gN6uRjG4J6mK-203" target="5PIJYf61gN6uRjG4J6mK-258">
          <mxGeometry width="50" height="50" relative="1" as="geometry">
            <mxPoint x="-227" y="375.5" as="sourcePoint" />
            <mxPoint x="-178" y="278.5" as="targetPoint" />
          </mxGeometry>
        </mxCell>
        <mxCell id="5PIJYf61gN6uRjG4J6mK-258" value="has" style="rhombus;whiteSpace=wrap;html=1;" vertex="1" parent="1">
          <mxGeometry x="-164.75" y="304" width="33" height="33" as="geometry" />
        </mxCell>
        <mxCell id="5PIJYf61gN6uRjG4J6mK-259" value="m" style="text;html=1;align=center;verticalAlign=middle;resizable=0;points=[];autosize=1;strokeColor=none;fillColor=none;" vertex="1" parent="1">
          <mxGeometry x="-194.75" y="350.5" width="30" height="30" as="geometry" />
        </mxCell>
        <mxCell id="5PIJYf61gN6uRjG4J6mK-260" value="1" style="text;html=1;align=center;verticalAlign=middle;resizable=0;points=[];autosize=1;strokeColor=none;fillColor=none;" vertex="1" parent="1">
          <mxGeometry x="-134.75" y="272.5" width="30" height="30" as="geometry" />
        </mxCell>
        <mxCell id="5PIJYf61gN6uRjG4J6mK-262" value="Transmission" style="rounded=0;whiteSpace=wrap;html=1;" vertex="1" parent="1">
          <mxGeometry x="-300.25" y="210" width="100.25" height="55.5" as="geometry" />
        </mxCell>
        <mxCell id="5PIJYf61gN6uRjG4J6mK-263" value="" style="endArrow=none;html=1;rounded=0;" edge="1" parent="1" source="5PIJYf61gN6uRjG4J6mK-264" target="5PIJYf61gN6uRjG4J6mK-262">
          <mxGeometry width="50" height="50" relative="1" as="geometry">
            <mxPoint x="-166.25" y="497" as="sourcePoint" />
            <mxPoint x="-116.25" y="447" as="targetPoint" />
          </mxGeometry>
        </mxCell>
        <mxCell id="5PIJYf61gN6uRjG4J6mK-265" value="" style="endArrow=none;html=1;rounded=0;" edge="1" parent="1" source="5PIJYf61gN6uRjG4J6mK-203" target="5PIJYf61gN6uRjG4J6mK-264">
          <mxGeometry width="50" height="50" relative="1" as="geometry">
            <mxPoint x="-256" y="375.5" as="sourcePoint" />
            <mxPoint x="-302" y="279.5" as="targetPoint" />
          </mxGeometry>
        </mxCell>
        <mxCell id="5PIJYf61gN6uRjG4J6mK-264" value="has" style="rhombus;whiteSpace=wrap;html=1;" vertex="1" parent="1">
          <mxGeometry x="-240.25" y="300.75" width="33" height="33" as="geometry" />
        </mxCell>
        <mxCell id="5PIJYf61gN6uRjG4J6mK-266" value="1" style="text;html=1;align=center;verticalAlign=middle;resizable=0;points=[];autosize=1;strokeColor=none;fillColor=none;" vertex="1" parent="1">
          <mxGeometry x="-265.25" y="270.75" width="30" height="30" as="geometry" />
        </mxCell>
        <mxCell id="5PIJYf61gN6uRjG4J6mK-267" value="m" style="text;html=1;align=center;verticalAlign=middle;resizable=0;points=[];autosize=1;strokeColor=none;fillColor=none;" vertex="1" parent="1">
          <mxGeometry x="-262" y="347.5" width="30" height="30" as="geometry" />
        </mxCell>
        <mxCell id="5PIJYf61gN6uRjG4J6mK-269" value="n" style="text;html=1;align=center;verticalAlign=middle;resizable=0;points=[];autosize=1;strokeColor=none;fillColor=none;" vertex="1" parent="1">
          <mxGeometry x="-336" y="748.5" width="30" height="30" as="geometry" />
        </mxCell>
        <mxCell id="K6oVG-lhVH4ILQRuHamm-1" value="" style="endArrow=none;html=1;rounded=0;entryX=1;entryY=1;entryDx=0;entryDy=0;" edge="1" parent="1" source="K6oVG-lhVH4ILQRuHamm-3" target="5PIJYf61gN6uRjG4J6mK-244">
          <mxGeometry width="50" height="50" relative="1" as="geometry">
            <mxPoint x="-440" y="610" as="sourcePoint" />
            <mxPoint x="-390" y="560" as="targetPoint" />
          </mxGeometry>
        </mxCell>
        <mxCell id="K6oVG-lhVH4ILQRuHamm-2" value="" style="endArrow=none;html=1;rounded=0;entryX=1;entryY=1;entryDx=0;entryDy=0;" edge="1" parent="1" source="5PIJYf61gN6uRjG4J6mK-203" target="K6oVG-lhVH4ILQRuHamm-3">
          <mxGeometry width="50" height="50" relative="1" as="geometry">
            <mxPoint x="-274" y="375" as="sourcePoint" />
            <mxPoint x="-402" y="253" as="targetPoint" />
          </mxGeometry>
        </mxCell>
        <mxCell id="K6oVG-lhVH4ILQRuHamm-3" value="has" style="rhombus;whiteSpace=wrap;html=1;" vertex="1" parent="1">
          <mxGeometry x="-372" y="291.5" width="42" height="44" as="geometry" />
        </mxCell>
        <mxCell id="K6oVG-lhVH4ILQRuHamm-4" value="1" style="text;html=1;align=center;verticalAlign=middle;resizable=0;points=[];autosize=1;strokeColor=none;fillColor=none;" vertex="1" parent="1">
          <mxGeometry x="-402" y="235.5" width="30" height="30" as="geometry" />
        </mxCell>
        <mxCell id="K6oVG-lhVH4ILQRuHamm-15" value="m" style="text;html=1;align=center;verticalAlign=middle;resizable=0;points=[];autosize=1;strokeColor=none;fillColor=none;" vertex="1" parent="1">
          <mxGeometry x="-324" y="350.5" width="30" height="30" as="geometry" />
        </mxCell>
        <mxCell id="K6oVG-lhVH4ILQRuHamm-16" value="" style="endArrow=none;html=1;rounded=0;" edge="1" parent="1" source="K6oVG-lhVH4ILQRuHamm-18" target="5PIJYf61gN6uRjG4J6mK-244">
          <mxGeometry width="50" height="50" relative="1" as="geometry">
            <mxPoint x="-754" y="592" as="sourcePoint" />
            <mxPoint x="-716" y="235" as="targetPoint" />
          </mxGeometry>
        </mxCell>
        <mxCell id="K6oVG-lhVH4ILQRuHamm-17" value="" style="endArrow=none;html=1;rounded=0;" edge="1" parent="1" source="5PIJYf61gN6uRjG4J6mK-209" target="K6oVG-lhVH4ILQRuHamm-18">
          <mxGeometry width="50" height="50" relative="1" as="geometry">
            <mxPoint x="-593" y="357" as="sourcePoint" />
            <mxPoint x="-716" y="235" as="targetPoint" />
          </mxGeometry>
        </mxCell>
        <mxCell id="K6oVG-lhVH4ILQRuHamm-18" value="has" style="rhombus;whiteSpace=wrap;html=1;" vertex="1" parent="1">
          <mxGeometry x="-607" y="303.5" width="42" height="44" as="geometry" />
        </mxCell>
        <mxCell id="K6oVG-lhVH4ILQRuHamm-19" value="1" style="text;html=1;align=center;verticalAlign=middle;resizable=0;points=[];autosize=1;strokeColor=none;fillColor=none;" vertex="1" parent="1">
          <mxGeometry x="-547" y="245.5" width="30" height="30" as="geometry" />
        </mxCell>
        <mxCell id="K6oVG-lhVH4ILQRuHamm-20" value="m" style="text;html=1;align=center;verticalAlign=middle;resizable=0;points=[];autosize=1;strokeColor=none;fillColor=none;" vertex="1" parent="1">
          <mxGeometry x="-652" y="390.26" width="30" height="30" as="geometry" />
        </mxCell>
        <mxCell id="K6oVG-lhVH4ILQRuHamm-24" value="" style="endArrow=none;html=1;rounded=0;exitX=0;exitY=0;exitDx=0;exitDy=0;" edge="1" parent="1" source="K6oVG-lhVH4ILQRuHamm-25" target="5PIJYf61gN6uRjG4J6mK-209">
          <mxGeometry width="50" height="50" relative="1" as="geometry">
            <mxPoint x="-440" y="610" as="sourcePoint" />
            <mxPoint x="-390" y="560" as="targetPoint" />
          </mxGeometry>
        </mxCell>
        <mxCell id="K6oVG-lhVH4ILQRuHamm-26" value="" style="endArrow=none;html=1;rounded=0;exitX=0;exitY=0;exitDx=0;exitDy=0;" edge="1" parent="1" source="5PIJYf61gN6uRjG4J6mK-139" target="K6oVG-lhVH4ILQRuHamm-25">
          <mxGeometry width="50" height="50" relative="1" as="geometry">
            <mxPoint x="-497" y="630" as="sourcePoint" />
            <mxPoint x="-621" y="489" as="targetPoint" />
          </mxGeometry>
        </mxCell>
        <mxCell id="K6oVG-lhVH4ILQRuHamm-25" value="has" style="rhombus;whiteSpace=wrap;html=1;" vertex="1" parent="1">
          <mxGeometry x="-578" y="543.5" width="42" height="39.25" as="geometry" />
        </mxCell>
        <mxCell id="K6oVG-lhVH4ILQRuHamm-27" value="1" style="text;html=1;align=center;verticalAlign=middle;resizable=0;points=[];autosize=1;strokeColor=none;fillColor=none;" vertex="1" parent="1">
          <mxGeometry x="-637" y="496" width="30" height="30" as="geometry" />
        </mxCell>
        <mxCell id="K6oVG-lhVH4ILQRuHamm-28" value="1" style="text;html=1;align=center;verticalAlign=middle;resizable=0;points=[];autosize=1;strokeColor=none;fillColor=none;" vertex="1" parent="1">
          <mxGeometry x="-512" y="600.75" width="30" height="30" as="geometry" />
        </mxCell>
        <mxCell id="K6oVG-lhVH4ILQRuHamm-34" value="" style="endArrow=none;html=1;rounded=0;" edge="1" parent="1" source="K6oVG-lhVH4ILQRuHamm-36" target="5PIJYf61gN6uRjG4J6mK-203">
          <mxGeometry width="50" height="50" relative="1" as="geometry">
            <mxPoint x="-165.25" y="595.75" as="sourcePoint" />
            <mxPoint x="-347.25" y="474.75" as="targetPoint" />
          </mxGeometry>
        </mxCell>
        <mxCell id="K6oVG-lhVH4ILQRuHamm-35" value="" style="endArrow=none;html=1;rounded=0;" edge="1" parent="1" source="5PIJYf61gN6uRjG4J6mK-139" target="K6oVG-lhVH4ILQRuHamm-36">
          <mxGeometry width="50" height="50" relative="1" as="geometry">
            <mxPoint x="-222.25" y="615.75" as="sourcePoint" />
            <mxPoint x="-346.25" y="474.75" as="targetPoint" />
          </mxGeometry>
        </mxCell>
        <mxCell id="K6oVG-lhVH4ILQRuHamm-36" value="has" style="rhombus;whiteSpace=wrap;html=1;" vertex="1" parent="1">
          <mxGeometry x="-330" y="519.25" width="42" height="39.25" as="geometry" />
        </mxCell>
        <mxCell id="K6oVG-lhVH4ILQRuHamm-37" value="1" style="text;html=1;align=center;verticalAlign=middle;resizable=0;points=[];autosize=1;strokeColor=none;fillColor=none;" vertex="1" parent="1">
          <mxGeometry x="-267.25" y="435.25" width="30" height="30" as="geometry" />
        </mxCell>
        <mxCell id="K6oVG-lhVH4ILQRuHamm-38" value="1" style="text;html=1;align=center;verticalAlign=middle;resizable=0;points=[];autosize=1;strokeColor=none;fillColor=none;" vertex="1" parent="1">
          <mxGeometry x="-417" y="600.75" width="30" height="30" as="geometry" />
        </mxCell>
        <mxCell id="nVCY8v1cohrTL9bKAxeN-1" value="listingsCounter" style="ellipse;whiteSpace=wrap;html=1;" vertex="1" parent="1">
          <mxGeometry x="-565" y="900" width="86" height="60" as="geometry" />
        </mxCell>
        <mxCell id="nVCY8v1cohrTL9bKAxeN-2" value="" style="endArrow=none;html=1;rounded=0;" edge="1" parent="1" source="5PIJYf61gN6uRjG4J6mK-137" target="nVCY8v1cohrTL9bKAxeN-1">
          <mxGeometry width="50" height="50" relative="1" as="geometry">
            <mxPoint x="-547" y="830.5" as="sourcePoint" />
            <mxPoint x="-527" y="887.5" as="targetPoint" />
          </mxGeometry>
        </mxCell>
        <mxCell id="nVCY8v1cohrTL9bKAxeN-4" value="" style="endArrow=none;html=1;rounded=0;" edge="1" parent="1" source="5PIJYf61gN6uRjG4J6mK-209" target="nVCY8v1cohrTL9bKAxeN-3">
          <mxGeometry width="50" height="50" relative="1" as="geometry">
            <mxPoint x="-595" y="429" as="sourcePoint" />
            <mxPoint x="-507" y="378" as="targetPoint" />
          </mxGeometry>
        </mxCell>
        <mxCell id="nVCY8v1cohrTL9bKAxeN-3" value="has" style="rhombus;whiteSpace=wrap;html=1;" vertex="1" parent="1">
          <mxGeometry x="-569" y="377.5" width="42" height="44" as="geometry" />
        </mxCell>
        <mxCell id="nVCY8v1cohrTL9bKAxeN-6" value="" style="endArrow=none;html=1;rounded=0;" edge="1" parent="1" source="5PIJYf61gN6uRjG4J6mK-203" target="nVCY8v1cohrTL9bKAxeN-5">
          <mxGeometry width="50" height="50" relative="1" as="geometry">
            <mxPoint x="-302" y="391" as="sourcePoint" />
            <mxPoint x="-417" y="363" as="targetPoint" />
          </mxGeometry>
        </mxCell>
        <mxCell id="nVCY8v1cohrTL9bKAxeN-5" value="has" style="rhombus;whiteSpace=wrap;html=1;" vertex="1" parent="1">
          <mxGeometry x="-384" y="360.25" width="42" height="44" as="geometry" />
        </mxCell>
        <mxCell id="nVCY8v1cohrTL9bKAxeN-8" value="" style="endArrow=none;html=1;rounded=0;" edge="1" parent="1" source="5PIJYf61gN6uRjG4J6mK-139" target="nVCY8v1cohrTL9bKAxeN-7">
          <mxGeometry width="50" height="50" relative="1" as="geometry">
            <mxPoint x="-437" y="630" as="sourcePoint" />
            <mxPoint x="-436" y="542" as="targetPoint" />
          </mxGeometry>
        </mxCell>
        <mxCell id="nVCY8v1cohrTL9bKAxeN-7" value="has" style="rhombus;whiteSpace=wrap;html=1;" vertex="1" parent="1">
          <mxGeometry x="-459" y="564.88" width="42" height="39.25" as="geometry" />
        </mxCell>
        <mxCell id="nVCY8v1cohrTL9bKAxeN-10" value="" style="endArrow=none;html=1;rounded=0;" edge="1" parent="1" source="5PIJYf61gN6uRjG4J6mK-208" target="nVCY8v1cohrTL9bKAxeN-9">
          <mxGeometry width="50" height="50" relative="1" as="geometry">
            <mxPoint x="-577" y="477" as="sourcePoint" />
            <mxPoint x="-496" y="496" as="targetPoint" />
          </mxGeometry>
        </mxCell>
        <mxCell id="nVCY8v1cohrTL9bKAxeN-9" value="has" style="rhombus;whiteSpace=wrap;html=1;" vertex="1" parent="1">
          <mxGeometry x="-557" y="465.25" width="42" height="39.25" as="geometry" />
        </mxCell>
        <mxCell id="nVCY8v1cohrTL9bKAxeN-12" value="" style="endArrow=none;html=1;rounded=0;" edge="1" parent="1" source="5PIJYf61gN6uRjG4J6mK-199" target="nVCY8v1cohrTL9bKAxeN-11">
          <mxGeometry width="50" height="50" relative="1" as="geometry">
            <mxPoint x="-377" y="479" as="sourcePoint" />
            <mxPoint x="-297" y="435" as="targetPoint" />
          </mxGeometry>
        </mxCell>
        <mxCell id="nVCY8v1cohrTL9bKAxeN-11" value="has" style="rhombus;whiteSpace=wrap;html=1;" vertex="1" parent="1">
          <mxGeometry x="-359.25" y="440.75" width="42" height="39.25" as="geometry" />
        </mxCell>
      </root>
    </mxGraphModel>
  </diagram>
</mxfile>
